<?xml version="1.0" encoding="utf-8"?><svg viewBox="0 0 39 39" xmlns="http://www.w3.org/2000/svg" xmlns:xlink="http://www.w3.org/1999/xlink"><style>:root>svg{display:none}:root>svg:target{display:block}</style><svg viewBox="0 0 39 39" id="facebook" xmlns="http://www.w3.org/2000/svg"><circle cx="19.5" cy="19.5" r="19.5"/><path d="M17.547 29.526v-9.631H15v-3.468h2.547v-2.962c0-2.328 1.504-4.465 4.97-4.465 1.404 0 2.442.135 2.442.135l-.082 3.238s-1.058-.01-2.213-.01c-1.25 0-1.45.576-1.45 1.532v2.532h3.763l-.164 3.468h-3.6v9.631h-3.666z"/></svg><svg viewBox="0 0 39 39" id="instagram" xmlns="http://www.w3.org/2000/svg"><circle cx="19.5" cy="19.5" r="19.5"/><path d="M19.748 16.498a3.258 3.258 0 00-3.252 3.252A3.258 3.258 0 0019.748 23a3.258 3.258 0 003.251-3.251 3.258 3.258 0 00-3.251-3.252zm9.751 3.252c0-1.346.013-2.68-.063-4.025-.076-1.56-.432-2.946-1.573-4.088-1.144-1.144-2.527-1.497-4.088-1.573-1.347-.076-2.681-.063-4.025-.063-1.346 0-2.68-.013-4.025.063-1.56.076-2.946.432-4.088 1.573-1.144 1.144-1.497 2.527-1.573 4.088-.075 1.347-.063 2.68-.063 4.025 0 1.344-.012 2.68.063 4.024.076 1.562.432 2.947 1.573 4.088 1.144 1.145 2.527 1.498 4.088 1.574 1.347.075 2.681.063 4.025.063 1.346 0 2.68.012 4.025-.063 1.56-.076 2.946-.432 4.088-1.573 1.144-1.144 1.497-2.527 1.573-4.088.078-1.345.063-2.679.063-4.025zm-9.751 5.003a4.996 4.996 0 01-5.003-5.003 4.996 4.996 0 015.003-5.003 4.996 4.996 0 015.002 5.003 4.996 4.996 0 01-5.002 5.003zm5.207-9.042a1.167 1.167 0 01-1.168-1.169 1.167 1.167 0 111.995.827 1.166 1.166 0 01-.827.342z"/></svg><svg viewBox="0 0 39 39" id="twitter" xmlns="http://www.w3.org/2000/svg"><circle cx="19.5" cy="19.5" r="19.5"/><path d="M29.526 12.98a8.437 8.437 0 01-2.422.652 4.196 4.196 0 001.85-2.319 8.305 8.305 0 01-2.67 1.017A4.194 4.194 0 0023.212 11a4.205 4.205 0 00-4.206 4.208c0 .326.04.652.104.965a11.954 11.954 0 01-8.673-4.403 4.177 4.177 0 00-.573 2.123c0 1.46.743 2.749 1.875 3.506a4.243 4.243 0 01-1.902-.535v.051a4.207 4.207 0 003.372 4.13 4.451 4.451 0 01-1.107.143c-.274 0-.533-.027-.795-.064a4.214 4.214 0 003.933 2.918 8.43 8.43 0 01-5.223 1.798c-.352 0-.678-.012-1.016-.052a11.911 11.911 0 006.46 1.888c7.736 0 11.97-6.41 11.97-11.972 0-.182 0-.365-.013-.547a9.06 9.06 0 002.11-2.176z"/></svg></svg>